<svg width="15" height="16" viewBox="0 0 15 16" fill="none" xmlns="http://www.w3.org/2000/svg">
  <path fill-rule="evenodd" clip-rule="evenodd"
    d="M13.6679 0.71967C13.9608 0.426777 14.4357 0.426777 14.7286 0.71967C15.0215 1.01256 15.0215 1.48744 14.7286 1.78033L8.53478 7.97412L14.7286 14.1679C15.0215 14.4608 15.0215 14.9357 14.7286 15.2286C14.4357 15.5215 13.9608 15.5215 13.6679 15.2286L7.47412 9.03478L1.28033 15.2286C0.987437 15.5215 0.512563 15.5215 0.21967 15.2286C-0.0732234 14.9357 -0.0732231 14.4608 0.21967 14.1679L6.41346 7.97412L0.21967 1.78033C-0.0732232 1.48744 -0.0732232 1.01256 0.21967 0.71967C0.512563 0.426777 0.987437 0.426777 1.28033 0.71967L7.47412 6.91346L13.6679 0.71967Z"
    fill="currentColor" />
</svg>