<svg width="16" height="20" viewBox="0 0 16 20" fill="none" xmlns="http://www.w3.org/2000/svg">
<path d="M14.9964 7.66L8.32977 19.66C8.20977 19.8733 7.98977 20 7.74977 20C7.69644 20 7.63644 19.9933 7.58311 19.98C7.28977 19.9 7.08311 19.64 7.08311 19.3333V12H1.08311C0.856439 12 0.649772 11.8867 0.523105 11.7C0.403105 11.5133 0.383105 11.2733 0.469772 11.0667L5.13644 0.4C5.24311 0.16 5.48311 0 5.74977 0H9.74977C9.96977 0 10.1764 0.106667 10.3031 0.293333C10.4231 0.473333 10.4498 0.706667 10.3698 0.913333L8.06977 6.66667H14.4164C14.6498 6.66667 14.8698 6.79333 14.9898 6.99333C15.1098 7.2 15.1164 7.45333 14.9964 7.66Z" fill="currentColor"/>
</svg>
