<svg width="18" height="20" viewBox="0 0 18 20" fill="none" xmlns="http://www.w3.org/2000/svg">
  <path
    d="M3.3626 10.053C3.3626 10.053 0.698349 13.1017 0.417627 13.4697C0.136906 13.8376 0.114244 14.2436 0.496582 14.7075C0.878577 15.1715 4.89548 19.2324 5.41598 19.5936C5.93691 19.9548 6.47132 20.2979 7.26356 19.5776C8.05597 18.8572 9.99478 16.7917 10.2429 16.5415C10.4911 16.2913 10.4828 15.7787 10.4828 15.7787C10.4828 15.7787 11.484 16.0137 12.8184 14.8929C14.1525 13.7724 17.1289 10.3493 17.4741 9.36305C17.8192 8.37661 18.0165 7.25449 17.3496 6.16234C16.6831 5.07003 14.3468 2.30681 12.3115 1.04273C10.2758 -0.221205 8.87591 -0.120685 7.98515 0.231117C7.09439 0.582919 6.16502 1.57185 5.87774 2.11507C4.53506 2.72319 3.31188 3.32882 2.88187 4.6596C2.45185 5.99038 2.95314 8.65503 2.94605 9.0197C2.93946 9.38414 3.06977 9.82415 3.3626 10.053Z"
    fill="#F54A4A" />
  <path
    d="M2.83499 10.658L2.91108 10.6522C5.67378 11.7159 9.01333 14.9216 10.2432 16.5416C10.4913 16.2914 10.4831 15.7788 10.4831 15.7788C9.25321 14.1588 6.12531 11.1167 3.3626 10.053C3.3626 10.053 3.14806 10.2985 2.83499 10.658Z"
    fill="#BA2E2E" />
  <path
    d="M5.69585 2.7008C5.62645 2.86132 5.36845 3.004 5.12486 3.17897C4.88127 3.35395 4.25791 4.51411 4.40073 4.63016C4.54355 4.7462 5.84544 4.28565 5.99611 4.01086C6.14712 3.73592 6.34306 2.56279 6.3037 2.21915C6.26447 1.8767 6.37379 1.44404 6.92655 0.90369C6.44582 1.31392 6.04834 1.79262 5.87774 2.11507C5.87774 2.11507 5.76508 2.54035 5.69585 2.7008Z"
    fill="#BA2E2E" />
  <path
    d="M8.62747 15.3721C9.02071 15.7209 9.0381 16.3143 8.66794 16.6978L7.08529 18.3804C6.71471 18.7639 6.09608 18.7917 5.70292 18.443L1.95618 15.0393C1.56344 14.6906 1.54563 14.0972 1.91613 13.7136L3.49871 12.0308C3.86936 11.6475 4.48791 11.6195 4.88123 11.9685L8.62747 15.3721Z"
    fill="white" />
</svg>