<svg width="20" height="20" viewBox="0 0 20 20" fill="none" xmlns="http://www.w3.org/2000/svg">
<circle cx="10" cy="10" r="10" fill="white"/>
<path d="M9.70492 5.72435C9.647 5.86423 9.61802 6.01641 9.61802 6.18089C9.61802 6.34309 9.6462 6.49352 9.70279 6.63237C9.759 6.77134 9.84416 6.89842 9.95738 7.01442C10.0708 7.12963 10.1968 7.21665 10.3341 7.27461C10.4723 7.33227 10.6226 7.36136 10.7848 7.36136C10.9432 7.36136 11.0903 7.33173 11.2262 7.27354C11.3617 7.21505 11.4862 7.12749 11.5991 7.0116C11.7127 6.89534 11.7975 6.7673 11.8539 6.62902C11.9107 6.49043 11.9388 6.34065 11.9388 6.18089C11.9388 6.01641 11.9104 5.86423 11.8537 5.72473C11.7972 5.58523 11.712 5.45868 11.5987 5.34492C11.4852 5.23079 11.3608 5.14468 11.2252 5.08675C11.0897 5.02936 10.9426 5 10.7848 5C10.6271 5 10.4797 5.02936 10.3429 5.08691C10.2067 5.14468 10.0806 5.23079 9.96526 5.34427C9.84953 5.45799 9.76262 5.58496 9.70492 5.72435Z" fill="#141414"/>
<path d="M10.1306 13.0169L10.1318 13.0123L11.5797 8.23096L11.5821 8.21401C11.5816 8.20001 11.5756 8.18678 11.5654 8.17721C11.5551 8.16765 11.5415 8.16253 11.5275 8.16298L8.1098 8.27019C8.09811 8.27005 8.08671 8.27379 8.07736 8.28081C8.06802 8.28784 8.06127 8.29776 8.05816 8.30903L7.88233 8.94887L7.87939 8.9673C7.87942 8.9814 7.88503 8.99491 7.89498 9.00489C7.90493 9.01487 7.91843 9.02051 7.93252 9.02058H8.60134C8.92989 9.02058 9.06295 9.21545 9.02586 9.51689C9.00327 9.69805 8.94135 9.89094 8.89238 10.0668L8.12732 12.3842C7.97567 12.8704 7.81705 13.4352 8.00983 13.9324C8.31484 14.7196 9.38 14.7622 10.0546 14.5009C10.297 14.4066 10.5335 14.266 10.7642 14.0791L10.7678 14.0764C10.9985 13.89 11.2262 13.6542 11.4509 13.3698C11.6737 13.0875 11.8941 12.7565 12.1121 12.3775C12.1269 12.3541 12.1217 12.3225 12.0992 12.306L11.625 11.9542C11.619 11.9507 11.6124 11.9483 11.6055 11.9473C11.5986 11.9463 11.5916 11.9467 11.5848 11.9484C11.5781 11.9501 11.5718 11.9531 11.5662 11.9573C11.5606 11.9614 11.5559 11.9667 11.5524 11.9727C11.4125 12.206 11.278 12.4153 11.1502 12.5979C11.0218 12.781 10.8982 12.9398 10.7796 13.0743C10.6628 13.2061 10.5585 13.3057 10.4676 13.3713C10.3838 13.4323 10.3134 13.4631 10.2581 13.4631C10.0058 13.4631 10.0876 13.1706 10.1306 13.0169Z" fill="#141414"/>
</svg>
