<svg width="23" height="23" viewBox="0 0 23 23" fill="none" xmlns="http://www.w3.org/2000/svg">
  <path fill-rule="evenodd" clip-rule="evenodd"
    d="M11.6213 2.32955C11.182 1.89021 10.4697 1.89021 10.0303 2.32955C9.73744 2.62244 9.26256 2.62244 8.96967 2.32955C8.67678 2.03666 8.67678 1.56178 8.96967 1.26889C9.9948 0.243764 11.6569 0.243764 12.682 1.26889C13.7071 2.29402 13.7071 3.95607 12.682 4.9812C12.4691 5.19409 12.3594 5.47108 12.3528 5.75005H16.2502C18.4882 5.75005 20.4467 7.21463 20.9888 9.29585L22.5739 15.3708C22.8566 16.4563 23 17.5692 23 18.6881C23 19.8737 22.4368 20.9967 21.4707 21.7366L20.8548 22.2086C20.1872 22.7211 19.3551 23 18.4998 23C17.6118 23 16.7786 22.5836 16.2692 21.8862L13.2993 17.8218C13.2022 17.6894 13.0441 17.6095 12.8753 17.6095H10.6247C10.4559 17.6095 10.2977 17.6894 10.2007 17.8218L7.23081 21.8862C6.72142 22.5836 5.88825 23 5.00022 23C4.14489 23 3.31277 22.7211 2.64516 22.2086L2.02926 21.7366C1.06318 20.9967 0.5 19.8737 0.5 18.6881C0.5 17.5692 0.643419 16.4564 0.926074 15.3708L2.51122 9.29585C3.05337 7.21469 5.01186 5.75005 7.24985 5.75005H10.8526C10.8593 5.08716 11.1155 4.42633 11.6213 3.92054C12.0607 3.4812 12.0607 2.76889 11.6213 2.32955ZM3.96278 9.67398L3.96263 9.67457L2.37768 15.7487L2.37757 15.7491L2.37748 15.7495C2.12684 16.7124 2 17.698 2 18.6881C2 19.3929 2.33458 20.0811 2.94125 20.5457L2.94171 20.546L3.55762 21.018L3.55853 21.0187C3.95859 21.3258 4.46812 21.5 5.00022 21.5C5.42464 21.5 5.80139 21.3001 6.0195 21.0014L6.0197 21.0012L8.9896 16.9368L8.99079 16.9352C9.37582 16.4097 9.98726 16.1095 10.6247 16.1095H12.8753C13.5128 16.1095 14.1242 16.4098 14.5092 16.9352L14.5104 16.9368L17.4803 21.0012L17.4805 21.0014C17.6986 21.3001 18.0754 21.5 18.4998 21.5C19.0319 21.5 19.5414 21.3258 19.9415 21.0187L19.9424 21.018L20.5583 20.546L20.5587 20.5457C21.1654 20.081 21.5 19.3928 21.5 18.6881C21.5 17.6977 21.3731 16.7118 21.1223 15.7487L19.5374 9.67457L19.5372 9.67394C19.1771 8.29146 17.8454 7.25005 16.2502 7.25005H7.24985C5.65466 7.25005 4.32292 8.29148 3.96278 9.67398ZM7.25 10.25C7.66421 10.25 8 10.5858 8 11V11.75H8.75C9.16421 11.75 9.5 12.0858 9.5 12.5C9.5 12.9143 9.16421 13.25 8.75 13.25H8V14C8 14.4143 7.66421 14.75 7.25 14.75C6.83579 14.75 6.5 14.4143 6.5 14V13.25H5.75C5.33579 13.25 5 12.9143 5 12.5C5 12.0858 5.33579 11.75 5.75 11.75H6.5V11C6.5 10.5858 6.83579 10.25 7.25 10.25ZM17.75 12.5C17.75 12.9143 17.4142 13.25 17 13.25H14C13.5858 13.25 13.25 12.9143 13.25 12.5C13.25 12.0858 13.5858 11.75 14 11.75H17C17.4142 11.75 17.75 12.0858 17.75 12.5Z"
    fill="currentColor" />
</svg>