<svg width="23" height="20" viewBox="0 0 23 20" fill="none" xmlns="http://www.w3.org/2000/svg">
<path d="M22.4218 8.21272L14.6206 0.411592C14.2071 0.00770814 13.5931 -0.110772 13.0589 0.108927C12.5247 0.328626 12.1725 0.844565 12.1617 1.42293V4.94919C9.04353 5.17322 6.1258 6.56801 3.99553 8.85569C1.86403 11.1423 0.677168 14.1505 0.673859 17.2772V18.5643V18.5632C0.669551 19.2148 1.11113 19.7835 1.7423 19.9418C1.86508 19.9785 1.99218 19.9978 2.12142 20C2.63518 20 3.10907 19.7232 3.36219 19.2762L3.58083 18.8971H3.57976C5.35905 15.7855 8.58474 13.778 12.1617 13.5549V17.0015C12.1607 17.5842 12.5128 18.1098 13.0525 18.3316C13.591 18.5535 14.2114 18.4275 14.6207 18.0117L22.4218 10.2106V10.2117C22.9614 9.65486 22.9614 8.76955 22.4218 8.21272Z" fill="currentColor"/>
</svg>
