<svg width="23" height="23" viewBox="0 0 23 23" fill="none" xmlns="http://www.w3.org/2000/svg">
<path fill-rule="evenodd" clip-rule="evenodd" d="M17.75 5.75C17.3358 5.75 17 5.41421 17 5V3.5H6.5V5C6.5 5.41421 6.16421 5.75 5.75 5.75C5.33579 5.75 5 5.41421 5 5V3.5H4.25C3.00736 3.5 2 4.50736 2 5.75V19.25C2 20.4926 3.00736 21.5 4.25 21.5H19.25C20.4926 21.5 21.5 20.4926 21.5 19.25V5.75C21.5 4.50736 20.4926 3.5 19.25 3.5H18.5V5C18.5 5.41421 18.1642 5.75 17.75 5.75ZM5 2H4.25C2.17893 2 0.5 3.67893 0.5 5.75V19.25C0.5 21.3211 2.17893 23 4.25 23H19.25C21.3211 23 23 21.3211 23 19.25V5.75C23 3.67893 21.3211 2 19.25 2H18.5V1.25C18.5 0.835786 18.1642 0.5 17.75 0.5C17.3358 0.5 17 0.835786 17 1.25V2H6.5V1.25C6.5 0.835786 6.16421 0.5 5.75 0.5C5.33579 0.5 5 0.835786 5 1.25V2ZM5 9.5C5 9.08579 5.33579 8.75 5.75 8.75H14.75C15.1642 8.75 15.5 9.08579 15.5 9.5C15.5 9.91421 15.1642 10.25 14.75 10.25H5.75C5.33579 10.25 5 9.91421 5 9.5ZM5.75 12.5C5.33579 12.5 5 12.8358 5 13.25C5 13.6642 5.33579 14 5.75 14H11.75C12.1642 14 12.5 13.6642 12.5 13.25C12.5 12.8358 12.1642 12.5 11.75 12.5H5.75Z" fill="currentColor"/>
</svg>
