<svg width="20" height="20" viewBox="0 0 20 20" fill="none" xmlns="http://www.w3.org/2000/svg">
<path d="M10 20C15.5229 20 20 15.5229 20 10C20 4.47714 15.5229 0 10 0C4.47714 0 0 4.47714 0 10C0 15.5229 4.47714 20 10 20Z" fill="#0098EA"/>
<path d="M13.4148 5.58142H6.58564C5.33 5.58142 4.53417 6.93589 5.16585 8.03085L9.38057 15.3361C9.6556 15.8131 10.3449 15.8131 10.6199 15.3361L14.8355 8.03085C15.4663 6.93764 14.6705 5.58142 13.4157 5.58142H13.4148ZM9.37714 13.1454L8.45925 11.3689L6.24446 7.40774C6.09835 7.15421 6.27882 6.82931 6.58478 6.82931H9.37628V13.1462L9.37714 13.1454ZM13.7543 7.40689L11.5404 11.3698L10.6225 13.1454V6.82846H13.414C13.7199 6.82846 13.9004 7.15335 13.7543 7.40689Z" fill="white"/>
</svg>
