<svg width="23" height="23" viewBox="0 0 23 23" fill="none" xmlns="http://www.w3.org/2000/svg">
<path fill-rule="evenodd" clip-rule="evenodd" d="M11.25 2C13.5258 2 15.375 3.84922 15.375 6.125C15.375 8.40077 13.5258 10.25 11.25 10.25C8.97421 10.25 7.12499 8.40077 7.12499 6.125C7.12499 3.84922 8.97421 2 11.25 2ZM11.25 0.5C14.3542 0.5 16.875 3.0208 16.875 6.125C16.875 9.2292 14.3542 11.75 11.25 11.75C8.14579 11.75 5.62499 9.2292 5.62499 6.125C5.62499 3.0208 8.14579 0.5 11.25 0.5ZM18.161 22.9999C13.3964 22.9996 5.77808 22.9973 2.17845 22.9815C1.47345 22.9815 0.812456 22.6496 0.403445 22.0909C-0.00556553 21.5321 -0.110551 20.8147 0.120438 20.1665L0.121438 20.1635C1.73644 15.7016 6.10748 12.5 11.2405 12.5C16.3726 12.5 20.7435 15.7006 22.3765 20.1548C22.3769 20.1555 22.3771 20.156 22.3773 20.1566C22.3774 20.1568 22.3775 20.157 22.3775 20.1572C22.3778 20.158 22.378 20.1587 22.3785 20.1597C22.6115 20.8138 22.5055 21.537 22.0925 22.1006C22.0139 22.2082 21.9259 22.3074 21.8301 22.3976C21.4244 22.7794 20.878 22.9986 20.3034 22.9991H20.3025H20.3015L20.3025 23H20.3015H20.3006L18.161 22.9999ZM1.53342 20.6699L1.5354 20.6644C2.93822 16.8015 6.74262 14 11.2405 14C15.7407 14 19.5509 16.8053 20.9682 20.6711L20.9698 20.6755C21.0296 20.8558 21.0003 21.0533 20.8826 21.214L20.8816 21.2154C20.7585 21.3838 20.5449 21.4991 20.3015 21.4991H16.6318L16.6325 21.4998C11.8947 21.499 5.41694 21.4957 2.18504 21.4815V21.4815H2.17845C1.94203 21.4815 1.73464 21.3699 1.6138 21.2048C1.49698 21.0452 1.47 20.8479 1.53342 20.6699Z" fill="currentColor"/>
</svg>
